<svg xmlns="http://www.w3.org/2000/svg" viewBox="0 0 495.53 498.38"><defs><style>.cls-1{fill:#c465db;}.cls-2{fill:#ffdb5b;}.cls-3{fill:#a9def9;}.cls-4{fill:#f9c977;}.cls-5{fill:#ff99c8;}.cls-6{fill:#fb896e;}.cls-7{fill:#50e2de;}</style></defs><title>confetti_1</title><g id="Layer_2" data-name="Layer 2"><g id="OBJECTS"><polygon class="cls-1" points="42.08 27.59 38.11 42.11 53.7 37.17 42.08 27.59"/><polygon class="cls-1" points="14.14 53.84 6.6 62.52 18.96 64.28 14.14 53.84"/><polygon class="cls-1" points="114.13 174.57 106.58 183.25 118.94 185.01 114.13 174.57"/><polygon class="cls-2" points="68.77 1.81 62.16 15.34 78.39 13.38 68.77 1.81"/><polygon class="cls-3" points="163.36 45.87 163.06 56.23 172.69 50.4 163.36 45.87"/><polygon class="cls-2" points="75.36 100.03 70.12 110.77 83 109.22 75.36 100.03"/><polygon class="cls-2" points="52.5 200.73 47.26 211.47 60.14 209.92 52.5 200.73"/><polygon class="cls-4" points="3.82 193.89 0 201.72 9.39 200.59 3.82 193.89"/><polygon class="cls-5" points="41.11 20.48 30.17 30.83 46.06 34.7 41.11 20.48"/><polygon class="cls-5" points="36.72 121.21 25.78 131.56 41.66 135.43 36.72 121.21"/><polygon class="cls-5" points="29.03 242.24 39.76 252.8 43.06 236.79 29.03 242.24"/><path class="cls-3" d="M104.24,82.08a4.74,4.74,0,1,1-4.74-4.74A4.74,4.74,0,0,1,104.24,82.08Z"/><path class="cls-3" d="M47.59,137.77A4.74,4.74,0,1,1,42.85,133,4.74,4.74,0,0,1,47.59,137.77Z"/><polygon class="cls-1" points="87.04 171.12 85.02 178.51 92.95 175.99 87.04 171.12"/><polygon class="cls-1" points="72.81 184.48 68.97 188.9 75.27 189.8 72.81 184.48"/><polygon class="cls-4" points="100.62 157.99 97.26 164.88 105.53 163.89 100.62 157.99"/><polygon class="cls-4" points="103.98 208 101.31 213.46 107.87 212.67 103.98 208"/><polygon class="cls-5" points="86.54 167.49 80.97 172.76 89.06 174.74 86.54 167.49"/><polygon class="cls-5" points="84.31 218.78 78.74 224.05 86.83 226.02 84.31 218.78"/><path class="cls-6" d="M91.65,157.45A2.41,2.41,0,1,1,89.24,155,2.41,2.41,0,0,1,91.65,157.45Z"/><path class="cls-6" d="M118.68,198.86a2.41,2.41,0,1,1-2.41-2.41A2.41,2.41,0,0,1,118.68,198.86Z"/><path class="cls-6" d="M89.84,227.21a2.41,2.41,0,1,1-2.41-2.41A2.41,2.41,0,0,1,89.84,227.21Z"/><path class="cls-3" d="M122.24,187.59a4.74,4.74,0,1,1-4.74-4.74A4.74,4.74,0,0,1,122.24,187.59Z"/><path class="cls-6" d="M59.82,224A3.06,3.06,0,1,1,56.76,221,3.06,3.06,0,0,1,59.82,224Z"/><path class="cls-6" d="M14.92,182.85a3.06,3.06,0,1,1-3.06-3.06A3.07,3.07,0,0,1,14.92,182.85Z"/><path class="cls-6" d="M11.86,259.75a3.07,3.07,0,1,1-3.06-3.07A3.06,3.06,0,0,1,11.86,259.75Z"/><path class="cls-4" d="M14.92,80.1a2.76,2.76,0,1,1-2.76-2.76A2.76,2.76,0,0,1,14.92,80.1Z"/><path class="cls-4" d="M59.82,45.93a1.53,1.53,0,1,1-1.53-1.53A1.53,1.53,0,0,1,59.82,45.93Z"/><path class="cls-4" d="M112.76,40.56a2.45,2.45,0,1,1-2.44-2.45A2.45,2.45,0,0,1,112.76,40.56Z"/><path class="cls-4" d="M85.34,25.4a2.19,2.19,0,1,1-2.18-2.18A2.19,2.19,0,0,1,85.34,25.4Z"/><path class="cls-4" d="M126.89,142.53A1.49,1.49,0,1,1,125.4,141,1.49,1.49,0,0,1,126.89,142.53Z"/><path class="cls-1" d="M64.93,78.72a1.39,1.39,0,1,1-1.39-1.38A1.38,1.38,0,0,1,64.93,78.72Z"/><path class="cls-1" d="M23.3,107.57a2.17,2.17,0,1,1-2.17-2.17A2.17,2.17,0,0,1,23.3,107.57Z"/><path class="cls-1" d="M56.76,169a1.53,1.53,0,1,1-1.53-1.54A1.54,1.54,0,0,1,56.76,169Z"/><path class="cls-1" d="M144.6,75.27a2.07,2.07,0,1,1-2.07-2.07A2.07,2.07,0,0,1,144.6,75.27Z"/><path class="cls-1" d="M114.39,17.21A3.26,3.26,0,1,1,111.13,14,3.26,3.26,0,0,1,114.39,17.21Z"/><path class="cls-1" d="M94.76,57.87a1.56,1.56,0,1,1-1.55-1.55A1.55,1.55,0,0,1,94.76,57.87Z"/><path class="cls-1" d="M110.32,38.32a1.87,1.87,0,1,1-1.87-1.86A1.87,1.87,0,0,1,110.32,38.32Z"/><path class="cls-5" d="M50.25,180.68a2.17,2.17,0,1,1-2.17-2.17A2.17,2.17,0,0,1,50.25,180.68Z"/><path class="cls-5" d="M27.28,159.44a2,2,0,1,1-2-2A2,2,0,0,1,27.28,159.44Z"/><path class="cls-7" d="M14.92,95.91a1.53,1.53,0,1,1-1.53-1.53A1.53,1.53,0,0,1,14.92,95.91Z"/><path class="cls-7" d="M40,90.74a2,2,0,1,1-2-2A2,2,0,0,1,40,90.74Z"/><path class="cls-7" d="M42.85,56.21a2.37,2.37,0,1,1-2.37-2.37A2.37,2.37,0,0,1,42.85,56.21Z"/><path class="cls-5" d="M154,15.94a2,2,0,1,1-2-2A2,2,0,0,1,154,15.94Z"/><path class="cls-7" d="M124.41,106.48a1.09,1.09,0,1,1-1.08-1.08A1.08,1.08,0,0,1,124.41,106.48Z"/><path class="cls-5" d="M95.62,124.83a2,2,0,1,1-2-2A2,2,0,0,1,95.62,124.83Z"/><path class="cls-5" d="M128.05,226.61a1.82,1.82,0,1,1-1.82-1.81A1.82,1.82,0,0,1,128.05,226.61Z"/><path class="cls-5" d="M97.6,259.75a2.84,2.84,0,1,1-2.84-2.85A2.84,2.84,0,0,1,97.6,259.75Z"/><path class="cls-7" d="M52.09,275.41a2.25,2.25,0,1,1-2.25-2.25A2.25,2.25,0,0,1,52.09,275.41Z"/><polygon class="cls-1" points="184.69 27.59 180.72 42.11 196.3 37.17 184.69 27.59"/><polygon class="cls-1" points="156.75 53.84 149.21 62.52 161.57 64.28 156.75 53.84"/><polygon class="cls-1" points="253.6 175.25 249.63 186.04 261.81 183.3 253.6 175.25"/><polygon class="cls-2" points="214.79 2.43 201.83 10.09 216.46 17.39 214.79 2.43"/><polygon class="cls-3" points="265.67 106.7 265.37 117.06 274.99 111.23 265.67 106.7"/><polygon class="cls-3" points="136.82 24.79 130.59 33.06 141.81 33.87 136.82 24.79"/><polygon class="cls-6" points="132.88 97.91 123.91 103.1 133.93 108.22 132.88 97.91"/><polygon class="cls-3" points="136.19 223.64 136.79 233.99 145.87 227.34 136.19 223.64"/><polygon class="cls-2" points="220.3 100.3 210.75 107.49 222.93 111.95 220.3 100.3"/><polygon class="cls-2" points="146.43 193.89 142.61 201.72 152 200.59 146.43 193.89"/><polygon class="cls-5" points="183.71 20.48 172.78 30.83 188.66 34.7 183.71 20.48"/><polygon class="cls-5" points="179.32 121.21 168.39 131.56 184.27 135.43 179.32 121.21"/><path class="cls-3" d="M246.85,82.08a4.74,4.74,0,1,1-4.74-4.74A4.75,4.75,0,0,1,246.85,82.08Z"/><path class="cls-3" d="M190.2,137.77a4.74,4.74,0,1,1-4.74-4.74A4.74,4.74,0,0,1,190.2,137.77Z"/><polygon class="cls-1" points="215.42 184.48 211.58 188.9 217.87 189.8 215.42 184.48"/><polygon class="cls-4" points="243.23 157.99 239.87 164.88 248.13 163.89 243.23 157.99"/><path class="cls-6" d="M234.26,157.45a2.42,2.42,0,1,1-2.42-2.41A2.42,2.42,0,0,1,234.26,157.45Z"/><path class="cls-3" d="M265.81,184.54a4.74,4.74,0,1,1-6.11-2.75A4.74,4.74,0,0,1,265.81,184.54Z"/><path class="cls-6" d="M202.43,224a3.07,3.07,0,1,1-3.06-3.06A3.06,3.06,0,0,1,202.43,224Z"/><path class="cls-6" d="M157.53,182.85a3.07,3.07,0,1,1-3.06-3.06A3.07,3.07,0,0,1,157.53,182.85Z"/><path class="cls-6" d="M154.47,259.75a3.07,3.07,0,1,1-3.07-3.07A3.06,3.06,0,0,1,154.47,259.75Z"/><path class="cls-4" d="M157.53,80.1a2.77,2.77,0,1,1-2.76-2.76A2.77,2.77,0,0,1,157.53,80.1Z"/><path class="cls-4" d="M202.43,45.93a1.53,1.53,0,1,1-1.53-1.53A1.54,1.54,0,0,1,202.43,45.93Z"/><path class="cls-4" d="M255.37,40.56a2.45,2.45,0,1,1-2.45-2.45A2.45,2.45,0,0,1,255.37,40.56Z"/><path class="cls-4" d="M228,25.4a2.19,2.19,0,1,1-2.19-2.18A2.19,2.19,0,0,1,228,25.4Z"/><path class="cls-4" d="M144.06,21.23a2.65,2.65,0,1,1-2.65-2.64A2.64,2.64,0,0,1,144.06,21.23Z"/><path class="cls-4" d="M269.49,142.53A1.49,1.49,0,1,1,268,141,1.49,1.49,0,0,1,269.49,142.53Z"/><path class="cls-1" d="M134.46,141.37a2,2,0,1,1-2-2A2,2,0,0,1,134.46,141.37Z"/><path class="cls-1" d="M207.53,78.72a1.38,1.38,0,1,1-1.38-1.38A1.38,1.38,0,0,1,207.53,78.72Z"/><path class="cls-1" d="M165.9,107.57a2.17,2.17,0,1,1-2.16-2.17A2.16,2.16,0,0,1,165.9,107.57Z"/><path class="cls-1" d="M128.84,93.55a.83.83,0,1,1-.83-.83A.83.83,0,0,1,128.84,93.55Z"/><path class="cls-1" d="M199.37,169a1.54,1.54,0,1,1-1.53-1.54A1.54,1.54,0,0,1,199.37,169Z"/><path class="cls-1" d="M246.91,136.1a2.08,2.08,0,1,1-2.08-2.07A2.08,2.08,0,0,1,246.91,136.1Z"/><path class="cls-1" d="M257,17.21A3.26,3.26,0,1,1,253.74,14,3.26,3.26,0,0,1,257,17.21Z"/><path class="cls-1" d="M237.37,57.87a1.56,1.56,0,1,1-1.56-1.55A1.55,1.55,0,0,1,237.37,57.87Z"/><path class="cls-1" d="M252.92,38.32a1.87,1.87,0,1,1-1.86-1.86A1.86,1.86,0,0,1,252.92,38.32Z"/><path class="cls-5" d="M192.85,180.68a2.17,2.17,0,1,1-2.17-2.17A2.17,2.17,0,0,1,192.85,180.68Z"/><path class="cls-5" d="M169.89,159.44a2,2,0,1,1-2-2A2,2,0,0,1,169.89,159.44Z"/><path class="cls-5" d="M136.78,138.57a3.15,3.15,0,1,1-3.15-3.14A3.14,3.14,0,0,1,136.78,138.57Z"/><path class="cls-5" d="M157.53,95.91A1.53,1.53,0,1,1,156,94.38,1.54,1.54,0,0,1,157.53,95.91Z"/><path class="cls-5" d="M182.62,90.74a2,2,0,1,1-2-2A2,2,0,0,1,182.62,90.74Z"/><path class="cls-7" d="M185.46,56.21a2.37,2.37,0,1,1-2.37-2.37A2.37,2.37,0,0,1,185.46,56.21Z"/><path class="cls-7" d="M256.33,76.78a2,2,0,1,1-2-2A2,2,0,0,1,256.33,76.78Z"/><path class="cls-7" d="M267,106.48a1.09,1.09,0,1,1-2.17,0,1.09,1.09,0,0,1,2.17,0Z"/><path class="cls-5" d="M238.23,124.83a2,2,0,1,1-2-2A2,2,0,0,1,238.23,124.83Z"/><path class="cls-7" d="M270.65,226.61a1.82,1.82,0,1,1-1.81-1.81A1.81,1.81,0,0,1,270.65,226.61Z"/><path class="cls-5" d="M243.92,270.31a2.85,2.85,0,1,1-2.85-2.84A2.85,2.85,0,0,1,243.92,270.31Z"/><path class="cls-5" d="M213.83,256.68a2.25,2.25,0,1,1-2.25-2.25A2.25,2.25,0,0,1,213.83,256.68Z"/><polygon class="cls-1" points="443.34 444.69 447.31 430.17 431.72 435.11 443.34 444.69"/><polygon class="cls-1" points="471.27 418.44 478.81 409.76 466.45 408 471.27 418.44"/><polygon class="cls-1" points="371.29 297.71 378.83 289.03 366.48 287.27 371.29 297.71"/><polygon class="cls-2" points="416.65 470.47 423.26 456.94 407.02 458.89 416.65 470.47"/><polygon class="cls-3" points="322.05 426.41 322.36 416.05 312.73 421.88 322.05 426.41"/><polygon class="cls-6" points="489.2 447.49 495.44 439.22 484.21 438.41 489.2 447.49"/><polygon class="cls-6" points="491.84 248.64 491.24 238.29 482.16 244.94 491.84 248.64"/><polygon class="cls-2" points="410.06 372.25 415.3 361.51 402.42 363.06 410.06 372.25"/><polygon class="cls-2" points="374.22 489.56 379.46 478.82 366.58 480.38 374.22 489.56"/><polygon class="cls-4" points="432.92 271.55 438.16 260.81 425.28 262.36 432.92 271.55"/><polygon class="cls-4" points="481.59 278.39 485.42 270.56 476.02 271.69 481.59 278.39"/><polygon class="cls-5" points="444.31 451.8 455.25 441.45 439.36 437.58 444.31 451.8"/><polygon class="cls-5" points="448.7 351.07 459.64 340.72 443.75 336.85 448.7 351.07"/><polygon class="cls-5" points="456.39 230.04 445.66 219.48 442.36 235.49 456.39 230.04"/><path class="cls-6" d="M434.27,471.53a4.74,4.74,0,1,1,4.74,4.74A4.74,4.74,0,0,1,434.27,471.53Z"/><path class="cls-3" d="M381.18,390.2a4.74,4.74,0,1,1,4.74,4.74A4.74,4.74,0,0,1,381.18,390.2Z"/><path class="cls-6" d="M437.83,334.51a4.74,4.74,0,1,1,4.73,4.74A4.73,4.73,0,0,1,437.83,334.51Z"/><polygon class="cls-1" points="398.38 301.16 400.4 293.77 392.47 296.29 398.38 301.16"/><polygon class="cls-1" points="412.6 287.8 416.44 283.38 410.15 282.48 412.6 287.8"/><polygon class="cls-4" points="384.79 314.29 388.16 307.4 379.89 308.39 384.79 314.29"/><polygon class="cls-4" points="381.44 264.28 384.11 258.82 377.55 259.61 381.44 264.28"/><polygon class="cls-7" points="398.88 304.79 404.44 299.51 396.36 297.54 398.88 304.79"/><polygon class="cls-7" points="401.11 253.5 406.68 248.23 398.59 246.26 401.11 253.5"/><path class="cls-6" d="M393.77,314.83a2.41,2.41,0,1,1,2.41,2.41A2.41,2.41,0,0,1,393.77,314.83Z"/><path class="cls-6" d="M366.73,273.42a2.42,2.42,0,1,1,2.42,2.41A2.41,2.41,0,0,1,366.73,273.42Z"/><path class="cls-6" d="M395.57,245.07a2.42,2.42,0,1,1,2.42,2.41A2.41,2.41,0,0,1,395.57,245.07Z"/><path class="cls-3" d="M363.17,284.69a4.74,4.74,0,1,1,4.74,4.74A4.74,4.74,0,0,1,363.17,284.69Z"/><path class="cls-6" d="M425.59,248.26a3.07,3.07,0,1,1,3.07,3.06A3.08,3.08,0,0,1,425.59,248.26Z"/><path class="cls-6" d="M470.49,289.43a3.07,3.07,0,1,1,3.07,3.06A3.06,3.06,0,0,1,470.49,289.43Z"/><path class="cls-6" d="M473.56,212.53a3.07,3.07,0,1,1,3.06,3.07A3.06,3.06,0,0,1,473.56,212.53Z"/><path class="cls-4" d="M470.49,392.18a2.77,2.77,0,1,1,2.77,2.76A2.77,2.77,0,0,1,470.49,392.18Z"/><path class="cls-4" d="M425.59,426.34a1.54,1.54,0,1,1,1.53,1.54A1.54,1.54,0,0,1,425.59,426.34Z"/><path class="cls-4" d="M372.65,431.72a2.45,2.45,0,1,1,2.45,2.45A2.45,2.45,0,0,1,372.65,431.72Z"/><path class="cls-4" d="M400.08,446.87a2.18,2.18,0,1,1,2.18,2.19A2.18,2.18,0,0,1,400.08,446.87Z"/><path class="cls-4" d="M482,451a2.65,2.65,0,1,1,2.65,2.65A2.65,2.65,0,0,1,482,451Z"/><path class="cls-4" d="M358.53,329.75a1.49,1.49,0,1,1,1.49,1.49A1.49,1.49,0,0,1,358.53,329.75Z"/><path class="cls-1" d="M491.56,330.91a2,2,0,1,1,2,2A2,2,0,0,1,491.56,330.91Z"/><path class="cls-1" d="M420.49,393.56a1.39,1.39,0,1,1,1.38,1.38A1.38,1.38,0,0,1,420.49,393.56Z"/><path class="cls-1" d="M462.12,364.71a2.17,2.17,0,1,1,2.17,2.17A2.17,2.17,0,0,1,462.12,364.71Z"/><path class="cls-1" d="M428.66,303.25a1.53,1.53,0,1,1,1.53,1.54A1.53,1.53,0,0,1,428.66,303.25Z"/><circle class="cls-1" cx="342.89" cy="397.01" r="2.07"/><path class="cls-1" d="M371,455.06a3.27,3.27,0,1,1,3.26,3.27A3.26,3.26,0,0,1,371,455.06Z"/><path class="cls-1" d="M390.66,414.41a1.56,1.56,0,1,1,1.55,1.55A1.54,1.54,0,0,1,390.66,414.41Z"/><path class="cls-1" d="M375.1,434a1.87,1.87,0,1,1,1.87,1.87A1.86,1.86,0,0,1,375.1,434Z"/><path class="cls-1" d="M470.49,473.5a2.77,2.77,0,1,1,2.77,2.77A2.77,2.77,0,0,1,470.49,473.5Z"/><path class="cls-7" d="M435.17,291.6a2.17,2.17,0,1,1,2.17,2.17A2.17,2.17,0,0,1,435.17,291.6Z"/><path class="cls-7" d="M458.14,312.83a2,2,0,1,1,2,2A2,2,0,0,1,458.14,312.83Z"/><path class="cls-5" d="M489.25,333.71a3.14,3.14,0,1,1,3.14,3.14A3.14,3.14,0,0,1,489.25,333.71Z"/><path class="cls-7" d="M470.49,376.37A1.54,1.54,0,1,1,472,377.9,1.53,1.53,0,0,1,470.49,376.37Z"/><path class="cls-7" d="M445.4,381.54a2,2,0,1,1,2,2A2,2,0,0,1,445.4,381.54Z"/><path class="cls-7" d="M442.56,416.07a2.38,2.38,0,1,1,2.37,2.37A2.38,2.38,0,0,1,442.56,416.07Z"/><path class="cls-7" d="M331.39,456.34a2,2,0,1,1,2,2A2,2,0,0,1,331.39,456.34Z"/><path class="cls-7" d="M361,365.8a1.08,1.08,0,1,1,1.08,1.08A1.08,1.08,0,0,1,361,365.8Z"/><path class="cls-7" d="M389.79,347.45a2,2,0,1,1,2,2A2,2,0,0,1,389.79,347.45Z"/><path class="cls-5" d="M357.37,245.67a1.82,1.82,0,1,1,1.82,1.81A1.82,1.82,0,0,1,357.37,245.67Z"/><path class="cls-7" d="M387.81,212.53a2.85,2.85,0,1,1,2.85,2.85A2.85,2.85,0,0,1,387.81,212.53Z"/><path class="cls-7" d="M433.33,196.87a2.25,2.25,0,1,1,2.25,2.25A2.25,2.25,0,0,1,433.33,196.87Z"/><polygon class="cls-1" points="300.73 444.69 304.7 430.17 289.12 435.11 300.73 444.69"/><polygon class="cls-1" points="328.67 418.44 336.21 409.76 323.85 408 328.67 418.44"/><polygon class="cls-2" points="270.62 469.85 283.59 462.19 268.96 454.89 270.62 469.85"/><polygon class="cls-3" points="219.75 365.57 220.05 355.22 210.43 361.05 219.75 365.57"/><polygon class="cls-3" points="348.59 447.49 354.83 439.22 343.61 438.41 348.59 447.49"/><polygon class="cls-3" points="352.54 374.38 361.51 369.18 351.49 364.06 352.54 374.38"/><polygon class="cls-3" points="349.23 248.64 348.63 238.29 339.55 244.94 349.23 248.64"/><polygon class="cls-4" points="265.12 371.98 274.67 364.79 262.49 360.32 265.12 371.98"/><polygon class="cls-2" points="290.31 271.55 295.56 260.81 282.67 262.36 290.31 271.55"/><polygon class="cls-2" points="338.99 278.39 342.81 270.56 333.42 271.69 338.99 278.39"/><polygon class="cls-5" points="301.7 451.8 312.64 441.45 296.76 437.58 301.7 451.8"/><polygon class="cls-5" points="306.1 351.07 317.03 340.72 301.15 336.85 306.1 351.07"/><polygon class="cls-5" points="309.22 222.65 298.07 232.77 313.86 236.98 309.22 222.65"/><path class="cls-3" d="M238.57,390.2a4.74,4.74,0,1,1,4.74,4.74A4.74,4.74,0,0,1,238.57,390.2Z"/><path class="cls-3" d="M295.22,334.51a4.74,4.74,0,1,1,4.74,4.74A4.73,4.73,0,0,1,295.22,334.51Z"/><polygon class="cls-1" points="255.77 301.16 257.79 293.77 249.86 296.29 255.77 301.16"/><polygon class="cls-1" points="270 287.8 273.84 283.38 267.54 282.48 270 287.8"/><polygon class="cls-4" points="242.19 314.29 245.55 307.4 237.29 308.39 242.19 314.29"/><polygon class="cls-7" points="256.27 304.79 261.84 299.51 253.75 297.54 256.27 304.79"/><path class="cls-3" d="M251.16,314.83a2.42,2.42,0,1,1,2.41,2.41A2.41,2.41,0,0,1,251.16,314.83Z"/><path class="cls-6" d="M224.13,273.42a2.41,2.41,0,1,1,2.41,2.41A2.41,2.41,0,0,1,224.13,273.42Z"/><path class="cls-6" d="M283,248.26a3.06,3.06,0,1,1,3.06,3.06A3.07,3.07,0,0,1,283,248.26Z"/><path class="cls-3" d="M327.89,289.43a3.06,3.06,0,1,1,3.06,3.06A3.06,3.06,0,0,1,327.89,289.43Z"/><path class="cls-6" d="M331,212.53A3.07,3.07,0,1,1,334,215.6,3.06,3.06,0,0,1,331,212.53Z"/><path class="cls-4" d="M327.89,392.18a2.77,2.77,0,1,1,2.76,2.76A2.77,2.77,0,0,1,327.89,392.18Z"/><path class="cls-4" d="M283,426.34a1.53,1.53,0,1,1,1.53,1.54A1.53,1.53,0,0,1,283,426.34Z"/><path class="cls-4" d="M230.05,431.72a2.45,2.45,0,1,1,2.44,2.45A2.45,2.45,0,0,1,230.05,431.72Z"/><circle class="cls-4" cx="259.65" cy="446.87" r="2.18"/><path class="cls-4" d="M341.36,451a2.65,2.65,0,1,1,2.64,2.65A2.64,2.64,0,0,1,341.36,451Z"/><path class="cls-4" d="M215.92,329.75a1.49,1.49,0,1,1,1.49,1.49A1.49,1.49,0,0,1,215.92,329.75Z"/><path class="cls-1" d="M351,330.91a2,2,0,1,1,2,2A2,2,0,0,1,351,330.91Z"/><path class="cls-1" d="M277.89,393.56a1.38,1.38,0,1,1,1.38,1.38A1.38,1.38,0,0,1,277.89,393.56Z"/><path class="cls-1" d="M319.51,364.71a2.17,2.17,0,1,1,2.17,2.17A2.17,2.17,0,0,1,319.51,364.71Z"/><path class="cls-1" d="M356.58,378.73a.83.83,0,1,1,.83.83A.83.83,0,0,1,356.58,378.73Z"/><path class="cls-1" d="M286.05,303.25a1.53,1.53,0,1,1,1.53,1.54A1.54,1.54,0,0,1,286.05,303.25Z"/><path class="cls-1" d="M238.51,336.18a2.07,2.07,0,1,1,2.07,2.07A2.08,2.08,0,0,1,238.51,336.18Z"/><path class="cls-1" d="M228.42,455.06a3.26,3.26,0,1,1,3.26,3.27A3.26,3.26,0,0,1,228.42,455.06Z"/><path class="cls-1" d="M248.05,414.41a1.56,1.56,0,1,1,1.56,1.55A1.55,1.55,0,0,1,248.05,414.41Z"/><path class="cls-1" d="M232.49,434a1.87,1.87,0,1,1,1.87,1.87A1.87,1.87,0,0,1,232.49,434Z"/><path class="cls-5" d="M292.56,291.6a2.18,2.18,0,1,1,2.17,2.17A2.17,2.17,0,0,1,292.56,291.6Z"/><path class="cls-5" d="M315.53,312.83a2,2,0,1,1,2,2A2,2,0,0,1,315.53,312.83Z"/><path class="cls-5" d="M348.64,333.71a3.15,3.15,0,1,1,3.14,3.14A3.15,3.15,0,0,1,348.64,333.71Z"/><path class="cls-7" d="M327.89,376.37a1.53,1.53,0,1,1,1.53,1.53A1.52,1.52,0,0,1,327.89,376.37Z"/><path class="cls-7" d="M302.8,381.54a2,2,0,1,1,2,2A2,2,0,0,1,302.8,381.54Z"/><circle class="cls-5" cx="302.33" cy="416.07" r="2.37"/><path class="cls-7" d="M229.09,395.5a2,2,0,1,1,2,2A2,2,0,0,1,229.09,395.5Z"/><path class="cls-3" d="M218.4,365.8a1.09,1.09,0,1,1,1.08,1.08A1.09,1.09,0,0,1,218.4,365.8Z"/><path class="cls-5" d="M247.19,347.45a2,2,0,1,1,2,2A2,2,0,0,1,247.19,347.45Z"/><path class="cls-7" d="M271.59,215.6a2.25,2.25,0,1,1,2.25,2.25A2.25,2.25,0,0,1,271.59,215.6Z"/><polygon class="cls-1" points="39.09 437.6 53.62 441.57 48.67 425.99 39.09 437.6"/><polygon class="cls-1" points="65.34 465.54 74.02 473.08 75.79 460.72 65.34 465.54"/><polygon class="cls-1" points="186.08 365.56 194.76 373.1 196.52 360.74 186.08 365.56"/><polygon class="cls-2" points="13.31 410.92 26.85 417.52 24.89 401.29 13.31 410.92"/><polygon class="cls-3" points="57.37 316.32 67.73 316.63 61.9 307 57.37 316.32"/><polygon class="cls-3" points="36.29 485.47 44.57 491.7 45.38 480.48 36.29 485.47"/><polygon class="cls-3" points="109.41 489.41 114.61 498.38 119.72 488.36 109.41 489.41"/><polygon class="cls-2" points="111.54 404.32 122.27 409.56 120.72 396.68 111.54 404.32"/><polygon class="cls-2" points="212.24 427.19 222.97 432.43 221.42 419.55 212.24 427.19"/><polygon class="cls-5" points="31.98 438.58 42.33 449.51 46.21 433.63 31.98 438.58"/><polygon class="cls-5" points="132.71 442.97 143.06 453.9 146.94 438.02 132.71 442.97"/><polygon class="cls-5" points="253.75 450.66 264.31 439.93 248.29 436.62 253.75 450.66"/><path class="cls-6" d="M12.26,428.54a4.74,4.74,0,1,1-4.74,4.74A4.74,4.74,0,0,1,12.26,428.54Z"/><path class="cls-3" d="M93.58,375.45a4.74,4.74,0,1,1-4.74,4.73A4.74,4.74,0,0,1,93.58,375.45Z"/><path class="cls-3" d="M149.27,432.09a4.74,4.74,0,1,1-4.74,4.74A4.74,4.74,0,0,1,149.27,432.09Z"/><polygon class="cls-1" points="182.63 392.65 190.02 394.67 187.5 386.73 182.63 392.65"/><polygon class="cls-1" points="195.99 406.87 200.41 410.71 201.3 404.42 195.99 406.87"/><polygon class="cls-2" points="169.5 379.06 176.39 382.42 175.39 374.16 169.5 379.06"/><polygon class="cls-4" points="219.51 375.7 224.97 378.37 224.18 371.81 219.51 375.7"/><polygon class="cls-5" points="179 393.14 184.27 398.71 186.24 390.62 179 393.14"/><polygon class="cls-5" points="230.29 395.38 235.56 400.94 237.53 392.86 230.29 395.38"/><path class="cls-6" d="M169,388a2.42,2.42,0,1,1-2.41,2.42A2.41,2.41,0,0,1,169,388Z"/><path class="cls-3" d="M210.36,361a2.42,2.42,0,1,1-2.41,2.42A2.42,2.42,0,0,1,210.36,361Z"/><path class="cls-3" d="M238.72,389.84a2.42,2.42,0,1,1-2.42,2.41A2.41,2.41,0,0,1,238.72,389.84Z"/><path class="cls-3" d="M199.1,357.44a4.74,4.74,0,1,1-4.74,4.74A4.74,4.74,0,0,1,199.1,357.44Z"/><path class="cls-3" d="M235.53,419.86a3.07,3.07,0,1,1-3.07,3.06A3.06,3.06,0,0,1,235.53,419.86Z"/><path class="cls-4" d="M91.61,464.76a2.77,2.77,0,1,1-2.77,2.77A2.77,2.77,0,0,1,91.61,464.76Z"/><path class="cls-4" d="M57.44,419.86a1.53,1.53,0,1,1-1.53,1.53A1.53,1.53,0,0,1,57.44,419.86Z"/><path class="cls-4" d="M52.07,366.92a2.45,2.45,0,1,1-2.45,2.45A2.45,2.45,0,0,1,52.07,366.92Z"/><path class="cls-4" d="M36.91,394.34a2.19,2.19,0,1,1-2.18,2.19A2.18,2.18,0,0,1,36.91,394.34Z"/><path class="cls-4" d="M32.74,478.23a2.65,2.65,0,1,1-2.65,2.65A2.65,2.65,0,0,1,32.74,478.23Z"/><path class="cls-4" d="M154,352.8a1.49,1.49,0,1,1-1.49,1.49A1.49,1.49,0,0,1,154,352.8Z"/><path class="cls-1" d="M90.23,414.76a1.38,1.38,0,1,1-1.39,1.38A1.38,1.38,0,0,1,90.23,414.76Z"/><path class="cls-1" d="M119.07,456.39a2.17,2.17,0,1,1-2.16,2.16A2.17,2.17,0,0,1,119.07,456.39Z"/><path class="cls-1" d="M180.54,422.92a1.54,1.54,0,1,1-1.54,1.54A1.54,1.54,0,0,1,180.54,422.92Z"/><path class="cls-1" d="M86.77,335.09a2.07,2.07,0,1,1-2.07,2.07A2.06,2.06,0,0,1,86.77,335.09Z"/><path class="cls-1" d="M28.72,365.29a3.26,3.26,0,1,1-3.26,3.26A3.26,3.26,0,0,1,28.72,365.29Z"/><path class="cls-1" d="M69.38,384.92a1.56,1.56,0,1,1-1.56,1.56A1.55,1.55,0,0,1,69.38,384.92Z"/><path class="cls-1" d="M49.83,369.37A1.87,1.87,0,1,1,48,371.23,1.87,1.87,0,0,1,49.83,369.37Z"/><path class="cls-1" d="M10.28,464.76a2.77,2.77,0,1,1-2.76,2.77A2.77,2.77,0,0,1,10.28,464.76Z"/><path class="cls-5" d="M192.19,429.44a2.17,2.17,0,1,1-2.17,2.17A2.17,2.17,0,0,1,192.19,429.44Z"/><path class="cls-7" d="M171,452.41a2,2,0,1,1-2,2A2,2,0,0,1,171,452.41Z"/><path class="cls-5" d="M107.42,464.76a1.53,1.53,0,1,1-1.54,1.53A1.54,1.54,0,0,1,107.42,464.76Z"/><path class="cls-5" d="M102.24,439.67a2,2,0,1,1-2,2A2,2,0,0,1,102.24,439.67Z"/><path class="cls-5" d="M67.71,436.83a2.37,2.37,0,1,1-2.36,2.37A2.37,2.37,0,0,1,67.71,436.83Z"/><path class="cls-7" d="M27.45,325.66a2,2,0,1,1-2,2A2,2,0,0,1,27.45,325.66Z"/><path class="cls-7" d="M118,355.27a1.09,1.09,0,1,1-1.08,1.09A1.08,1.08,0,0,1,118,355.27Z"/><path class="cls-5" d="M136.33,384.06a2,2,0,1,1-2,2A2,2,0,0,1,136.33,384.06Z"/><path class="cls-5" d="M238.12,351.64a1.82,1.82,0,1,1-1.82,1.82A1.82,1.82,0,0,1,238.12,351.64Z"/><path class="cls-5" d="M271.25,382.08a2.85,2.85,0,1,1-2.84,2.84A2.85,2.85,0,0,1,271.25,382.08Z"/><path class="cls-5" d="M286.92,427.59a2.25,2.25,0,1,1-2.25,2.25A2.24,2.24,0,0,1,286.92,427.59Z"/><polygon class="cls-1" points="39.09 295 53.62 298.96 48.67 283.38 39.09 295"/><polygon class="cls-1" points="65.34 322.93 74.02 330.48 75.79 318.12 65.34 322.93"/><polygon class="cls-2" points="13.94 264.89 21.6 277.85 28.9 263.23 13.94 264.89"/><polygon class="cls-3" points="118.21 214.01 128.57 214.32 122.74 204.69 118.21 214.01"/><polygon class="cls-3" points="36.29 342.86 44.57 349.1 45.38 337.87 36.29 342.86"/><polygon class="cls-3" points="109.41 346.81 114.61 355.77 119.72 345.75 109.41 346.81"/><polygon class="cls-3" points="235.15 343.5 245.49 342.9 238.85 333.82 235.15 343.5"/><polygon class="cls-2" points="111.81 259.39 118.99 268.93 123.46 256.75 111.81 259.39"/><polygon class="cls-2" points="205.4 333.25 213.23 337.08 212.1 327.68 205.4 333.25"/><polygon class="cls-5" points="31.98 295.97 42.33 306.91 46.21 291.02 31.98 295.97"/><polygon class="cls-5" points="132.71 300.36 143.06 311.3 146.94 295.41 132.71 300.36"/><polygon class="cls-5" points="261.13 303.49 251.02 292.33 246.81 308.13 261.13 303.49"/><path class="cls-6" d="M12.26,285.93a4.74,4.74,0,1,1-4.74,4.74A4.74,4.74,0,0,1,12.26,285.93Z"/><path class="cls-3" d="M93.58,232.84a4.74,4.74,0,1,1-4.74,4.74A4.74,4.74,0,0,1,93.58,232.84Z"/><path class="cls-3" d="M149.27,289.49a4.74,4.74,0,1,1-4.74,4.74A4.74,4.74,0,0,1,149.27,289.49Z"/><polygon class="cls-1" points="182.63 250.04 190.02 252.06 187.5 244.13 182.63 250.04"/><polygon class="cls-1" points="195.99 264.26 200.41 268.1 201.3 261.81 195.99 264.26"/><polygon class="cls-5" points="179 250.54 184.27 256.1 186.24 248.02 179 250.54"/><polygon class="cls-5" points="230.29 252.77 235.56 258.34 237.53 250.25 230.29 252.77"/><path class="cls-6" d="M169,245.43a2.41,2.41,0,1,1-2.41,2.41A2.41,2.41,0,0,1,169,245.43Z"/><path class="cls-5" d="M235.53,277.25a3.07,3.07,0,1,1-3.07,3.07A3.07,3.07,0,0,1,235.53,277.25Z"/><path class="cls-3" d="M194.36,322.15a3.07,3.07,0,1,1-3.06,3.07A3.07,3.07,0,0,1,194.36,322.15Z"/><path class="cls-3" d="M271.25,325.22a3.07,3.07,0,1,1-3.06,3.06A3.06,3.06,0,0,1,271.25,325.22Z"/><path class="cls-2" d="M91.61,322.15a2.77,2.77,0,1,1-2.77,2.77A2.77,2.77,0,0,1,91.61,322.15Z"/><path class="cls-4" d="M57.44,277.25a1.54,1.54,0,1,1-1.53,1.54A1.53,1.53,0,0,1,57.44,277.25Z"/><path class="cls-4" d="M52.07,224.31a2.45,2.45,0,1,1-2.45,2.45A2.45,2.45,0,0,1,52.07,224.31Z"/><path class="cls-4" d="M36.91,251.74a2.18,2.18,0,1,1-2.18,2.18A2.17,2.17,0,0,1,36.91,251.74Z"/><path class="cls-4" d="M32.74,335.62a2.65,2.65,0,1,1-2.65,2.65A2.65,2.65,0,0,1,32.74,335.62Z"/><path class="cls-4" d="M154,210.19a1.49,1.49,0,1,1-1.49,1.49A1.49,1.49,0,0,1,154,210.19Z"/><path class="cls-1" d="M152.88,345.22a2,2,0,1,1-2,2A2,2,0,0,1,152.88,345.22Z"/><path class="cls-1" d="M90.23,272.15a1.39,1.39,0,1,1-1.39,1.39A1.38,1.38,0,0,1,90.23,272.15Z"/><path class="cls-1" d="M119.07,313.78a2.17,2.17,0,1,1-2.16,2.17A2.17,2.17,0,0,1,119.07,313.78Z"/><path class="cls-1" d="M105.06,350.85a.83.83,0,1,1-.83.82A.82.82,0,0,1,105.06,350.85Z"/><path class="cls-1" d="M180.54,280.32a1.53,1.53,0,1,1-1.54,1.53A1.53,1.53,0,0,1,180.54,280.32Z"/><path class="cls-1" d="M147.61,232.78a2.07,2.07,0,1,1-2.07,2.07A2.07,2.07,0,0,1,147.61,232.78Z"/><path class="cls-1" d="M28.72,222.68A3.27,3.27,0,1,1,25.46,226,3.26,3.26,0,0,1,28.72,222.68Z"/><path class="cls-1" d="M69.38,242.32a1.56,1.56,0,0,1,0,3.11,1.56,1.56,0,1,1,0-3.11Z"/><path class="cls-1" d="M49.83,226.76A1.87,1.87,0,1,1,48,228.63,1.87,1.87,0,0,1,49.83,226.76Z"/><path class="cls-1" d="M10.28,322.15a2.77,2.77,0,1,1-2.76,2.77A2.77,2.77,0,0,1,10.28,322.15Z"/><path class="cls-1" d="M11.77,350.85a1.49,1.49,0,1,1-1.49,1.49A1.48,1.48,0,0,1,11.77,350.85Z"/><path class="cls-5" d="M192.19,286.83A2.17,2.17,0,1,1,190,289,2.17,2.17,0,0,1,192.19,286.83Z"/><path class="cls-5" d="M171,309.8a2,2,0,1,1-2,2A2,2,0,0,1,171,309.8Z"/><path class="cls-5" d="M150.08,342.91a3.14,3.14,0,1,1-3.14,3.14A3.14,3.14,0,0,1,150.08,342.91Z"/><path class="cls-5" d="M107.42,322.15a1.54,1.54,0,1,1-1.54,1.54A1.54,1.54,0,0,1,107.42,322.15Z"/><path class="cls-5" d="M102.24,297.06a2,2,0,1,1-2,2A2,2,0,0,1,102.24,297.06Z"/><path class="cls-5" d="M67.71,294.22a2.37,2.37,0,1,1-2.36,2.37A2.38,2.38,0,0,1,67.71,294.22Z"/><path class="cls-7" d="M88.28,223.35a2,2,0,1,1-2,2A2,2,0,0,1,88.28,223.35Z"/><path class="cls-3" d="M118,212.67a1.08,1.08,0,1,1-1.08,1.08A1.08,1.08,0,0,1,118,212.67Z"/><path class="cls-5" d="M136.33,241.46a2,2,0,1,1-2,2A2,2,0,0,1,136.33,241.46Z"/><path class="cls-7" d="M281.82,235.76a2.85,2.85,0,1,1-2.84,2.85A2.86,2.86,0,0,1,281.82,235.76Z"/><path class="cls-7" d="M268.19,265.86a2.25,2.25,0,1,1-2.25,2.24A2.24,2.24,0,0,1,268.19,265.86Z"/><polygon class="cls-1" points="456.2 36.35 441.68 32.38 446.62 47.96 456.2 36.35"/><polygon class="cls-1" points="429.95 8.41 421.27 0.87 419.51 13.23 429.95 8.41"/><polygon class="cls-1" points="309.22 108.39 300.54 100.85 298.78 113.21 309.22 108.39"/><polygon class="cls-2" points="481.98 63.03 468.45 56.43 470.4 72.66 481.98 63.03"/><polygon class="cls-3" points="437.92 157.63 427.56 157.33 433.39 166.95 437.92 157.63"/><polygon class="cls-2" points="383.76 69.63 373.02 64.39 374.57 77.27 383.76 69.63"/><polygon class="cls-2" points="283.05 46.76 272.32 41.52 273.87 54.4 283.05 46.76"/><polygon class="cls-5" points="463.31 35.37 452.96 24.44 449.09 40.32 463.31 35.37"/><polygon class="cls-5" points="362.58 30.98 352.23 20.05 348.36 35.93 362.58 30.98"/><polygon class="cls-5" points="241.55 23.3 230.99 34.02 247 37.33 241.55 23.3"/><path class="cls-3" d="M483,45.41a4.74,4.74,0,1,1,4.74-4.74A4.74,4.74,0,0,1,483,45.41Z"/><path class="cls-3" d="M401.71,98.51a4.74,4.74,0,1,1,4.74-4.74A4.74,4.74,0,0,1,401.71,98.51Z"/><path class="cls-3" d="M346,41.86a4.74,4.74,0,1,1,4.74-4.74A4.74,4.74,0,0,1,346,41.86Z"/><polygon class="cls-1" points="312.67 81.31 305.28 79.29 307.79 87.22 312.67 81.31"/><polygon class="cls-1" points="299.31 67.08 294.89 63.24 293.99 69.53 299.31 67.08"/><polygon class="cls-4" points="325.79 94.89 318.9 91.53 319.9 99.79 325.79 94.89"/><polygon class="cls-4" points="275.79 98.25 270.32 95.58 271.11 102.14 275.79 98.25"/><polygon class="cls-5" points="316.29 80.81 311.02 75.24 309.05 83.33 316.29 80.81"/><polygon class="cls-5" points="265 78.57 259.74 73.01 257.77 81.09 265 78.57"/><path class="cls-6" d="M326.33,85.92a2.42,2.42,0,1,1,2.42-2.41A2.41,2.41,0,0,1,326.33,85.92Z"/><path class="cls-6" d="M284.93,113a2.42,2.42,0,1,1,2.41-2.41A2.41,2.41,0,0,1,284.93,113Z"/><path class="cls-5" d="M256.58,84.11A2.41,2.41,0,1,1,259,81.7,2.42,2.42,0,0,1,256.58,84.11Z"/><path class="cls-3" d="M296.19,116.51a4.74,4.74,0,1,1,4.74-4.74A4.74,4.74,0,0,1,296.19,116.51Z"/><path class="cls-6" d="M259.76,54.09A3.07,3.07,0,1,1,262.83,51,3.06,3.06,0,0,1,259.76,54.09Z"/><path class="cls-6" d="M300.93,9.19A3.07,3.07,0,1,1,304,6.13,3.06,3.06,0,0,1,300.93,9.19Z"/><path class="cls-6" d="M224,6.13a3.07,3.07,0,1,1,3.06-3.07A3.07,3.07,0,0,1,224,6.13Z"/><path class="cls-4" d="M403.69,9.19a2.77,2.77,0,1,1,2.76-2.76A2.77,2.77,0,0,1,403.69,9.19Z"/><path class="cls-4" d="M437.85,54.09a1.53,1.53,0,1,1,1.53-1.53A1.54,1.54,0,0,1,437.85,54.09Z"/><path class="cls-4" d="M443.23,107a2.45,2.45,0,1,1,2.44-2.44A2.45,2.45,0,0,1,443.23,107Z"/><path class="cls-4" d="M458.38,79.61a2.19,2.19,0,1,1,2.19-2.19A2.19,2.19,0,0,1,458.38,79.61Z"/><path class="cls-4" d="M341.25,121.15a1.49,1.49,0,1,1,1.49-1.48A1.48,1.48,0,0,1,341.25,121.15Z"/><path class="cls-1" d="M405.07,59.19a1.38,1.38,0,1,1,1.38-1.38A1.38,1.38,0,0,1,405.07,59.19Z"/><path class="cls-1" d="M376.22,17.57a2.17,2.17,0,1,1,2.17-2.17A2.17,2.17,0,0,1,376.22,17.57Z"/><path class="cls-1" d="M314.76,51a1.54,1.54,0,1,1,1.53-1.53A1.53,1.53,0,0,1,314.76,51Z"/><path class="cls-1" d="M408.52,138.86a2.07,2.07,0,1,1,2.07-2.07A2.07,2.07,0,0,1,408.52,138.86Z"/><path class="cls-1" d="M466.57,108.66a3.26,3.26,0,1,1,3.26-3.26A3.26,3.26,0,0,1,466.57,108.66Z"/><path class="cls-1" d="M425.92,89a1.56,1.56,0,1,1,1.55-1.56A1.56,1.56,0,0,1,425.92,89Z"/><path class="cls-1" d="M445.46,104.59a1.87,1.87,0,1,1,1.87-1.87A1.87,1.87,0,0,1,445.46,104.59Z"/><path class="cls-1" d="M485,9.19a2.77,2.77,0,1,1,2.76-2.76A2.76,2.76,0,0,1,485,9.19Z"/><path class="cls-5" d="M303.1,44.51a2.17,2.17,0,1,1,2.18-2.17A2.17,2.17,0,0,1,303.1,44.51Z"/><path class="cls-5" d="M324.34,21.55a2,2,0,1,1,2-2A2,2,0,0,1,324.34,21.55Z"/><path class="cls-7" d="M387.88,9.19a1.53,1.53,0,1,1,1.53-1.53A1.52,1.52,0,0,1,387.88,9.19Z"/><path class="cls-7" d="M393.05,34.28a2,2,0,1,1,2-2A2,2,0,0,1,393.05,34.28Z"/><path class="cls-7" d="M427.58,37.12A2.37,2.37,0,1,1,430,34.75,2.37,2.37,0,0,1,427.58,37.12Z"/><path class="cls-5" d="M467.85,148.29a2,2,0,1,1,2-2A2,2,0,0,1,467.85,148.29Z"/><path class="cls-7" d="M377.31,118.68a1.09,1.09,0,1,1,1.08-1.08A1.09,1.09,0,0,1,377.31,118.68Z"/><path class="cls-7" d="M359,89.89a2,2,0,1,1,2-2A2,2,0,0,1,359,89.89Z"/><path class="cls-7" d="M257.17,122.31A1.82,1.82,0,1,1,259,120.5,1.81,1.81,0,0,1,257.17,122.31Z"/><path class="cls-5" d="M224,91.87A2.85,2.85,0,1,1,226.89,89,2.85,2.85,0,0,1,224,91.87Z"/><path class="cls-7" d="M208.38,46.36a2.25,2.25,0,1,1,2.25-2.25A2.25,2.25,0,0,1,208.38,46.36Z"/><polygon class="cls-1" points="456.2 178.95 441.68 174.99 446.62 190.57 456.2 178.95"/><polygon class="cls-1" points="429.95 151.02 421.27 143.48 419.51 155.83 429.95 151.02"/><polygon class="cls-1" points="308.54 247.87 297.75 243.9 300.49 256.08 308.54 247.87"/><polygon class="cls-2" points="481.36 209.06 473.7 196.1 466.39 210.73 481.36 209.06"/><polygon class="cls-3" points="377.08 259.94 366.72 259.63 372.55 269.26 377.08 259.94"/><polygon class="cls-3" points="459 131.09 450.72 124.85 449.91 136.08 459 131.09"/><polygon class="cls-3" points="385.88 127.15 380.69 118.18 375.57 128.2 385.88 127.15"/><polygon class="cls-3" points="260.15 130.45 249.8 131.05 256.44 140.13 260.15 130.45"/><polygon class="cls-2" points="383.49 214.56 376.3 205.02 371.83 217.2 383.49 214.56"/><polygon class="cls-2" points="283.05 189.37 272.32 184.13 273.87 197.01 283.05 189.37"/><polygon class="cls-2" points="289.89 140.7 282.06 136.87 283.2 146.27 289.89 140.7"/><polygon class="cls-5" points="463.31 177.98 452.96 167.04 449.09 182.93 463.31 177.98"/><polygon class="cls-5" points="362.58 173.59 352.23 162.66 348.36 178.54 362.58 173.59"/><path class="cls-6" d="M483,188a4.74,4.74,0,1,1,4.74-4.74A4.74,4.74,0,0,1,483,188Z"/><path class="cls-3" d="M401.71,241.11a4.74,4.74,0,1,1,4.74-4.74A4.74,4.74,0,0,1,401.71,241.11Z"/><path class="cls-3" d="M346,184.47a4.74,4.74,0,1,1,4.74-4.74A4.74,4.74,0,0,1,346,184.47Z"/><polygon class="cls-1" points="312.67 223.91 305.28 221.89 307.79 229.83 312.67 223.91"/><polygon class="cls-1" points="299.31 209.69 294.89 205.85 293.99 212.14 299.31 209.69"/><polygon class="cls-2" points="325.79 237.5 318.9 234.13 319.9 242.4 325.79 237.5"/><polygon class="cls-4" points="275.79 240.85 270.32 238.19 271.11 244.75 275.79 240.85"/><polygon class="cls-5" points="316.29 223.42 311.02 217.85 309.05 225.93 316.29 223.42"/><path class="cls-6" d="M326.33,228.52a2.41,2.41,0,1,1,2.42-2.41A2.41,2.41,0,0,1,326.33,228.52Z"/><path class="cls-3" d="M284.93,255.56a2.42,2.42,0,1,1,2.41-2.42A2.41,2.41,0,0,1,284.93,255.56Z"/><path class="cls-3" d="M299.24,260.08A4.74,4.74,0,1,1,302,254,4.74,4.74,0,0,1,299.24,260.08Z"/><path class="cls-3" d="M259.76,196.7a3.07,3.07,0,1,1,3.07-3.07A3.06,3.06,0,0,1,259.76,196.7Z"/><path class="cls-6" d="M300.93,151.8a3.07,3.07,0,1,1,3.07-3.07A3.06,3.06,0,0,1,300.93,151.8Z"/><path class="cls-6" d="M224,148.73a3.06,3.06,0,1,1,3.06-3.06A3.06,3.06,0,0,1,224,148.73Z"/><path class="cls-4" d="M403.69,151.8a2.77,2.77,0,1,1,2.76-2.77A2.77,2.77,0,0,1,403.69,151.8Z"/><path class="cls-4" d="M437.85,196.7a1.54,1.54,0,1,1,1.53-1.53A1.54,1.54,0,0,1,437.85,196.7Z"/><path class="cls-4" d="M443.23,249.64a2.45,2.45,0,1,1,2.44-2.45A2.45,2.45,0,0,1,443.23,249.64Z"/><path class="cls-4" d="M458.38,222.21a2.18,2.18,0,1,1,2.19-2.18A2.18,2.18,0,0,1,458.38,222.21Z"/><path class="cls-4" d="M462.55,138.33a2.65,2.65,0,1,1,2.65-2.65A2.65,2.65,0,0,1,462.55,138.33Z"/><path class="cls-4" d="M341.25,263.76a1.49,1.49,0,1,1,1.49-1.49A1.49,1.49,0,0,1,341.25,263.76Z"/><path class="cls-1" d="M342.41,128.73a2,2,0,1,1,2-2A2,2,0,0,1,342.41,128.73Z"/><path class="cls-1" d="M405.07,201.8a1.39,1.39,0,1,1,1.38-1.38A1.38,1.38,0,0,1,405.07,201.8Z"/><path class="cls-1" d="M376.22,160.17a2.17,2.17,0,1,1,2.17-2.17A2.17,2.17,0,0,1,376.22,160.17Z"/><path class="cls-1" d="M390.24,123.1a.83.83,0,1,1,.82-.82A.83.83,0,0,1,390.24,123.1Z"/><path class="cls-1" d="M314.76,193.63a1.53,1.53,0,1,1,1.53-1.53A1.52,1.52,0,0,1,314.76,193.63Z"/><path class="cls-1" d="M347.68,241.17a2.07,2.07,0,1,1,2.08-2.07A2.07,2.07,0,0,1,347.68,241.17Z"/><path class="cls-1" d="M466.57,251.27a3.26,3.26,0,1,1,3.26-3.26A3.26,3.26,0,0,1,466.57,251.27Z"/><path class="cls-1" d="M425.92,231.63a1.56,1.56,0,1,1,1.55-1.55A1.55,1.55,0,0,1,425.92,231.63Z"/><path class="cls-1" d="M445.46,247.19a1.87,1.87,0,1,1,1.87-1.87A1.86,1.86,0,0,1,445.46,247.19Z"/><path class="cls-1" d="M485,151.8a2.77,2.77,0,1,1,2.76-2.77A2.76,2.76,0,0,1,485,151.8Z"/><path class="cls-1" d="M483.52,123.1a1.49,1.49,0,1,1,1.49-1.49A1.49,1.49,0,0,1,483.52,123.1Z"/><path class="cls-7" d="M303.1,187.12a2.17,2.17,0,1,1,2.18-2.17A2.17,2.17,0,0,1,303.1,187.12Z"/><path class="cls-7" d="M324.34,164.15a2,2,0,1,1,2-2A2,2,0,0,1,324.34,164.15Z"/><path class="cls-5" d="M345.21,131.05a3.15,3.15,0,1,1,3.15-3.15A3.15,3.15,0,0,1,345.21,131.05Z"/><path class="cls-7" d="M387.88,151.8a1.54,1.54,0,1,1,1.53-1.54A1.53,1.53,0,0,1,387.88,151.8Z"/><path class="cls-7" d="M393.05,176.89a2,2,0,1,1,2-2A2,2,0,0,1,393.05,176.89Z"/><path class="cls-7" d="M427.58,179.73a2.37,2.37,0,1,1,2.37-2.37A2.37,2.37,0,0,1,427.58,179.73Z"/><path class="cls-7" d="M407,250.6a2,2,0,1,1,2-2A2,2,0,0,1,407,250.6Z"/><path class="cls-7" d="M377.31,261.29a1.09,1.09,0,1,1,1.08-1.09A1.09,1.09,0,0,1,377.31,261.29Z"/><path class="cls-5" d="M359,232.5a2,2,0,1,1,2-2A2,2,0,0,1,359,232.5Z"/><path class="cls-7" d="M257.17,264.92A1.82,1.82,0,1,1,259,263.1,1.81,1.81,0,0,1,257.17,264.92Z"/><path class="cls-5" d="M213.47,238.19a2.85,2.85,0,1,1,2.85-2.85A2.85,2.85,0,0,1,213.47,238.19Z"/><rect class="cls-3" x="36.47" y="75.62" width="26.3" height="6.2" transform="translate(-37.22 112.14) rotate(-78.82)"/><rect class="cls-3" x="73.46" y="396.26" width="6.2" height="26.3" transform="translate(-136.47 51.51) rotate(-20.17)"/><rect class="cls-2" x="202.3" y="279.34" width="6.2" height="26.3" transform="translate(-88.26 88.76) rotate(-20.17)"/><rect class="cls-2" x="193.2" y="100.06" width="6.2" height="26.3" transform="translate(-15.65 33.03) rotate(-9.25)"/><rect class="cls-3" x="345.09" y="54.77" width="26.3" height="6.2" transform="translate(12.4 167.77) rotate(-26.81)"/><rect class="cls-3" x="42.06" y="257.29" width="26.3" height="6.2" transform="translate(-111.5 52.88) rotate(-26.81)"/><rect class="cls-3" x="467.57" y="222.76" width="26.3" height="6.2" transform="translate(-50.2 241.06) rotate(-26.81)"/><rect class="cls-3" x="416.41" y="394.42" width="6.2" height="26.3" transform="translate(-148.64 546.52) rotate(-57.92)"/><rect class="cls-2" x="195.55" y="437.9" width="6.2" height="26.3" transform="translate(-289.02 379.77) rotate(-57.92)"/></g></g></svg>